<?xml version="1.0" encoding="UTF-8"?>
<svg width="500px" height="500px" viewBox="0 0 500 500" version="1.1" xmlns="http://www.w3.org/2000/svg" xmlns:xlink="http://www.w3.org/1999/xlink">
    <!-- Generator: Sketch 43.2 (39069) - http://www.bohemiancoding.com/sketch -->
    <title>rmc_logo_v2</title>
    <desc>Created with Sketch.</desc>
    <defs></defs>
    <g id="Page-1" stroke="none" stroke-width="1" fill="none" fill-rule="evenodd">
        <g id="rmc_logo_v2">
            <g id="ibm_dt_logo" transform="translate(75.000000, 169.000000)">
                <path d="M82.4159021,161.682152 C36.8988562,161.682152 0,125.488369 0,80.841076 C0,36.1937826 36.8988562,0 82.4159021,0 C127.932948,0 174.975959,57.9340477 198.008051,81.3455657 C174.975959,104.392291 127.932948,161.682152 82.4159021,161.682152 Z M82.6310136,130.191768 C109.941818,130.191768 138.16822,95.8171256 151.987768,81.9887982 C138.16822,67.9415907 109.941818,33.1804281 82.6310136,33.1804281 C55.3202094,33.1804281 33.1804281,54.8971562 33.1804281,81.6860979 C33.1804281,108.47504 55.3202094,130.191768 82.6310136,130.191768 Z" id="Oval-3" fill="#000000"></path>
                <path d="M234.40367,161.682152 C188.886624,161.682152 151.987768,125.488369 151.987768,80.841076 C151.987768,36.1937826 188.886624,0 234.40367,0 C279.920716,0 326.963727,57.9340477 349.995819,81.3455657 C326.963727,104.392291 279.920716,161.682152 234.40367,161.682152 Z M234.6146,130.128209 C261.925404,130.128209 290.151807,95.7535671 303.971354,81.9252397 C290.151807,67.8780323 261.925404,33.1168697 234.6146,33.1168697 C207.303796,33.1168697 185.164015,54.8335977 185.164015,81.6225394 C185.164015,108.411481 207.303796,130.128209 234.6146,130.128209 Z" id="Oval-3" fill="#000000" transform="translate(250.991793, 80.841076) scale(-1, 1) translate(-250.991793, -80.841076) "></path>
                <circle id="Oval" fill="#ECBF1C" cx="161.620795" cy="68.5015291" r="10.7033639"></circle>
                <circle id="Oval" fill="#5AA700" cx="188.379205" cy="68.5015291" r="10.7033639"></circle>
                <circle id="Oval" fill="#5AA700" cx="188.379205" cy="96.3302752" r="10.7033639"></circle>
                <circle id="Oval" fill="#5AA700" cx="161.620795" cy="96.3302752" r="10.7033639"></circle>
            </g>
        </g>
    </g>
</svg>